<svg class="text-indigo-400 fill-current hover:text-teal-300" viewBox="0 0 24 24" fill="currentColor" stroke="none">
<path d="M1.494 18.638C.864 16.731.46 14.913.284 13.182l2.904-.572a28.33 28.33 0 00.748 3.366C5.549 12.353 7.324 9.009 9.26 5.944c.69-1.1 1.4-2.134 2.134-3.102l2.288 2.288c-1.76 2.435-3.645 5.654-5.654 9.658a76.52 76.52 0 00-1.562 3.256l-4.972.594zm7.263-2.772c.63-2.699 1.943-5.243 3.938-7.634 2.083-2.493 4.54-4.334 7.37-5.522l4.004 2.926c-.308 1.07-.829 2.23-1.562 3.476l-2.706-1.496c.25-.499.499-1.159.748-1.98-3.05 1.57-5.302 3.718-6.754 6.446-.484.91-.843 1.855-1.078 2.838 1.79-.264 3.315-.587 4.576-.968.323-.645.69-1.437 1.1-2.376l2.948 1.518c-1.555 3.05-3.49 6.057-5.808 9.02L13.18 19.98c1.07-1.364 1.804-2.34 2.2-2.926-1.423.47-2.86.792-4.312.968l-2.31-2.156z"/>
</svg>
